<svg width="22" height="21" viewBox="0 0 22 21" fill="none" xmlns="http://www.w3.org/2000/svg">
<path d="M10.9999 0.868713C5.40615 0.868713 0.868652 5.40621 0.868652 11C0.868652 15.4062 3.68115 19.15 7.60615 20.55C7.6249 20.5562 7.69365 20.5812 7.7124 20.5875C7.76865 20.6062 7.83115 20.6187 7.89365 20.6187C8.2249 20.6187 8.4874 20.35 8.4874 20.025C8.4874 20.0062 8.4874 19.9937 8.4874 19.975C8.4874 19.4375 8.4874 18.7562 8.4874 18.2125C7.84365 18.3437 6.86865 18.4687 6.3374 18.2125C5.6499 17.8812 5.2999 17.4562 4.96865 16.6187C4.55615 15.6 3.60615 15.3187 3.56865 15.1437C3.53115 14.9625 4.5749 14.6937 5.1124 15.3125C5.6499 15.9312 6.19365 17.1687 7.3499 17.05C7.91865 16.9937 8.2874 16.9 8.51865 16.8312C8.5624 16.4312 8.69365 15.9375 9.0249 15.5875C6.30615 15.1375 4.49365 13.675 4.49365 10.8062C4.49365 9.49996 4.86865 8.48746 5.53115 7.73121C5.41865 7.10621 5.23115 5.65621 5.73115 5.14996C5.73115 5.14996 6.4374 4.71246 8.4624 6.13746C9.21865 5.96246 10.0562 5.87496 10.9499 5.87496C10.9687 5.87496 10.9812 5.87496 10.9999 5.87496C11.0187 5.87496 11.0312 5.87496 11.0499 5.87496C11.9499 5.88121 12.7874 5.96871 13.5374 6.13746C15.5624 4.71246 16.2687 5.14996 16.2687 5.14996C16.7687 5.66246 16.5812 7.11246 16.4687 7.73121C17.1312 8.49371 17.5062 9.50621 17.5062 10.8062C17.5062 13.675 15.6999 15.1375 12.9749 15.5875C13.4937 16.1312 13.5124 17.0125 13.5124 17.375C13.5124 17.7187 13.5124 20.0187 13.5124 20.0312C13.5124 20.3625 13.7812 20.625 14.1062 20.625C14.1562 20.625 14.1999 20.6187 14.2499 20.6062C14.2624 20.6062 14.2999 20.5937 14.3124 20.5875C18.2812 19.2125 21.1312 15.4437 21.1312 11.0062C21.1312 5.39996 16.5937 0.868713 10.9999 0.868713Z" fill="white"/>
</svg>
